<?xml version="1.0" encoding="utf-8"?>
<!-- Generator: Adobe Illustrator 18.1.1, SVG Export Plug-In . SVG Version: 6.00 Build 0)  -->
<svg version="1.1" id="Layer_1" xmlns="http://www.w3.org/2000/svg" xmlns:xlink="http://www.w3.org/1999/xlink" x="0px" y="0px"
	 viewBox="0 0 400 300" enable-background="new 0 0 400 300" xml:space="preserve">
<rect fill="#2FA9ED" width="400" height="300"/>
<g>
	<path fill="#FFFFFF" d="M43.9,104.1h1.4l11.3,23.8h-5.3l-6.8-14.5l-7.4,14.5h-5.3L43.9,104.1z"/>
	<path fill="#FFFFFF" d="M63.7,114v13.9H59v-23.8h1.5l13.2,13.3v-13.3h4.8v23.8h-1.3L63.7,114z"/>
	<path fill="#FFFFFF" d="M86.1,107.3c2.4-2.4,5.3-3.6,8.7-3.6s6.3,1.2,8.7,3.6c2.4,2.4,3.6,5.3,3.6,8.7s-1.2,6.3-3.6,8.7
		s-5.3,3.6-8.7,3.6s-6.3-1.2-8.7-3.6c-2.4-2.4-3.6-5.3-3.6-8.7S83.7,109.7,86.1,107.3z M100.1,110.7c-1.5-1.5-3.2-2.2-5.3-2.2
		c-2.1,0-3.8,0.7-5.3,2.2s-2.2,3.2-2.2,5.3c0,2.1,0.7,3.8,2.2,5.3s3.2,2.2,5.3,2.2c2.1,0,3.8-0.7,5.3-2.2s2.2-3.2,2.2-5.3
		C102.2,113.9,101.5,112.2,100.1,110.7z"/>
	<path fill="#FFFFFF" d="M109,104.1h18v4.8h-6.6V128h-4.8v-19.1H109V104.1z"/>
	<path fill="#FFFFFF" d="M144.5,113.2v-9.1h4.8v23.8h-4.8V118h-8.8v9.9h-4.8v-23.8h4.8v9.1C135.7,113.2,144.5,113.2,144.5,113.2z"/>
	<path fill="#FFFFFF" d="M169.2,104.1v4.8h-15.9v-4.8H169.2z M153.3,118v-4.8h13.2v4.8H153.3z M153.3,127.9v-4.8h15.8v4.8H153.3z"/>
	<path fill="#FFFFFF" d="M182.6,108.8H178v19.1h-4.8V104h9.3c2,0,3.7,0.7,5,2.1s2.1,3.1,2.1,5.1c0,1.4-0.4,2.7-1.1,3.9
		c-0.8,1.2-1.8,2-3,2.6l4.7,10.2h-5.1l-4.5-9.6v-4.8h1.8c0.7,0,1.2-0.2,1.7-0.7s0.7-1,0.7-1.7s-0.2-1.2-0.7-1.7
		C183.8,109,183.2,108.8,182.6,108.8z"/>
	<path fill="#FFFFFF" d="M219.5,104.1v4.8h-11.1v4.4h9.2v4.8h-9.2v9.9h-4.8v-23.8L219.5,104.1L219.5,104.1z"/>
	<path fill="#FFFFFF" d="M232.4,108.8h-4.6v19.1H223V104h9.3c2,0,3.7,0.7,5,2.1c1.4,1.4,2.1,3.1,2.1,5.1c0,1.4-0.4,2.7-1.1,3.9
		c-0.8,1.2-1.8,2-3,2.6l4.7,10.2h-5l-4.5-9.6v-4.8h1.8c0.7,0,1.2-0.2,1.7-0.7s0.7-1,0.7-1.7s-0.2-1.2-0.7-1.7
		C233.6,109,233.1,108.8,232.4,108.8z"/>
	<path fill="#FFFFFF" d="M259.5,104.1v4.8h-15.9v-4.8H259.5z M243.6,118v-4.8h13.2v4.8H243.6z M243.6,127.9v-4.8h15.8v4.8H243.6z"/>
	<path fill="#FFFFFF" d="M274.4,104.1h1.4l11.3,23.8h-5.3l-6.8-14.5l-7.4,14.5h-5.3L274.4,104.1z"/>
	<path fill="#FFFFFF" d="M302.1,127.9L296,117l-1.8,1.9v9h-4.8v-23.8h4.8v7.7l7-7.7h6.4l-8.3,9.3l8.5,14.5
		C307.8,127.9,302.1,127.9,302.1,127.9z"/>
	<path fill="#FFFFFF" d="M311.2,104.1h4.8v23.8h-4.8V104.1z"/>
	<path fill="#FFFFFF" d="M325.1,114v13.9h-4.8v-23.8h1.5l13.2,13.3v-13.3h4.8v23.8h-1.3L325.1,114z"/>
	<path fill="#FFFFFF" d="M357.3,113.2h9.9v2.4c0,3.7-1.2,6.7-3.5,9.1s-5.1,3.6-8.4,3.6l0,0c-3.4,0-6.3-1.3-8.7-3.7
		c-2.4-2.4-3.5-5.3-3.5-8.7c0-3.4,1.2-6.3,3.7-8.6s5.3-3.6,8.7-3.6h0.1c2.8,0,5.4,0.9,7.6,2.7l-3.4,3.4c-1.2-0.8-2.6-1.3-4.2-1.3
		h-0.1c-2.1,0-3.9,0.7-5.3,2.2c-1.5,1.5-2.2,3.2-2.2,5.3c0,2.1,0.7,3.9,2.1,5.4c1.5,1.5,3.3,2.3,5.3,2.3c1.7,0,3.2-0.5,4.6-1.6
		s2.3-2.4,2.7-4.1h-5.4L357.3,113.2L357.3,113.2z"/>
	<path fill="#FFFFFF" d="M33.2,170l18.6-25.5H36.3v-6.3h27.6v2l-18.6,25.5h17.6v6.2H33.2V170z"/>
	<path fill="#FFFFFF" d="M73.8,142.7c3.4-3.4,7.5-5.1,12.3-5.1s8.9,1.7,12.3,5.1c3.4,3.4,5.1,7.5,5.1,12.3s-1.7,8.9-5.1,12.3
		c-3.4,3.4-7.5,5.1-12.3,5.1s-8.9-1.7-12.3-5.1c-3.4-3.4-5.1-7.5-5.1-12.3C68.6,150.2,70.4,146.1,73.8,142.7z M93.5,147.6
		c-2-2-4.5-3.1-7.4-3.1s-5.4,1-7.4,3.1c-2,2-3.1,4.5-3.1,7.4s1,5.4,3.1,7.4c2,2,4.5,3.1,7.4,3.1s5.4-1,7.4-3.1c2-2,3.1-4.5,3.1-7.4
		S95.6,149.7,93.5,147.6z"/>
	<path fill="#FFFFFF" d="M135.3,151.3l-9.7,8.8l-9.7-8.8v20.6h-6.7v-33.7h2.3l14.1,12.8l14-12.8h2.4v33.7h-6.7V151.3z"/>
	<path fill="#FFFFFF" d="M156.5,166.1h2.3c1.1,0,2.1-0.4,2.9-1.2c0.8-0.8,1.2-1.7,1.2-2.9c0-1.1-0.4-2.1-1.2-2.9s-1.8-1.2-2.9-1.2
		h-11v-19.8h9.2c2.7,0,5,1,7,2.9c1.9,1.9,2.9,4.2,2.9,7c0,2-0.6,3.9-1.7,5.5c2.7,2,4,4.7,4,8.1c0,2.8-1,5.2-3,7.2s-4.4,3-7.2,3h-2.4
		v-5.7H156.5z M153.8,151.5h2.9c1,0,1.9-0.4,2.7-1.1c0.8-0.7,1.2-1.7,1.2-2.8s-0.4-2-1.2-2.7s-1.7-1.1-2.7-1.1h-2.9V151.5z"/>
	<path fill="#FFFFFF" d="M174.9,138.2h6.7v33.6h-6.7V138.2z"/>
	<path fill="#FFFFFF" d="M210.3,138.2v6.7h-22.4v-6.7H210.3z M187.8,157.9v-6.7h18.6v6.7H187.8z M187.8,171.9v-6.7h22.3v6.7H187.8z"
		/>
	<path fill="#FFFFFF" d="M251,151.2h14v3.4c0,5.2-1.6,9.5-4.9,12.9s-7.2,5.1-11.8,5.1l0,0c-4.8-0.1-8.9-1.8-12.3-5.2s-5-7.5-5-12.3
		s1.8-8.8,5.2-12.2s7.5-5,12.3-5h0.1c4,0,7.6,1.3,10.7,3.8l-4.9,4.8c-1.7-1.2-3.7-1.8-5.9-1.9h-0.1c-2.9,0-5.5,1-7.5,3.1
		c-2.1,2-3.2,4.5-3.2,7.5c-0.1,2.9,0.9,5.5,3,7.6s4.6,3.2,7.5,3.2c2.4,0,4.6-0.8,6.5-2.3c1.9-1.5,3.2-3.4,3.8-5.7H251V151.2z"/>
	<path fill="#FFFFFF" d="M285.5,138.2h2l15.9,33.7H296l-9.6-20.5L276,171.9h-7.5L285.5,138.2z"/>
	<path fill="#FFFFFF" d="M334.2,151.3l-9.7,8.8l-9.7-8.8v20.6h-6.7v-33.7h2.3l14.1,12.8l14-12.8h2.4v33.7h-6.7L334.2,151.3
		L334.2,151.3z"/>
	<path fill="#FFFFFF" d="M369.6,138.2v6.7h-22.4v-6.7H369.6z M347.1,157.9v-6.7h18.6v6.7H347.1z M347.1,171.9v-6.7h22.3v6.7H347.1z"
		/>
</g>
<g>
	<path d="M338.7,186.4c0,3.2-2.4,5.7-5.5,5.7s-5.6-2.5-5.6-5.7c0-3.1,2.5-5.7,5.6-5.7C336.3,180.7,338.7,183.3,338.7,186.4z
		 M328.5,186.4c0,2.7,2,4.9,4.7,4.9c2.6,0,4.6-2.2,4.6-4.9s-2-4.9-4.6-4.9C330.5,181.5,328.5,183.6,328.5,186.4z M335.4,184.3
		c-0.2-0.1-0.9-0.4-1.8-0.4c-1.7,0-2.6,1.1-2.6,2.6c0,1.4,0.9,2.6,2.6,2.6c0.7,0,1.4-0.2,1.9-0.5l0.2,0.7c-0.6,0.4-1.5,0.6-2.3,0.6
		c-2.1,0-3.4-1.5-3.4-3.3c0-2.1,1.7-3.4,3.5-3.4c1,0,1.8,0.3,2,0.5L335.4,184.3z"/>
	<path d="M347.9,180l-1.7,1.5c-0.2-0.3-0.5-0.4-0.9-0.4c-0.3,0-0.5,0.1-0.7,0.3s-0.3,0.4-0.4,0.7s-0.1,0.5-0.2,0.7
		c0,0.2,0,0.4,0,0.6v1.5h2.4v2.2H344v5.8h-2.2v-5.8h-1.5v-2.2h1.5v-1.5c0-1.3,0.3-2.4,1-3.2s1.5-1.2,2.6-1.2
		C346.4,178.8,347.2,179.2,347.9,180z"/>
	<path d="M348.2,198.4l3.3-6.2l-3.9-7.4h2.6l2.6,4.4l2.4-4.4h2.6l-7.1,13.7h-2.5V198.4z"/>
	<path d="M361.9,184.5c1.2,0,2.3,0.4,3.1,1.2c0.9,0.8,1.3,1.8,1.3,3s-0.4,2.2-1.3,3s-1.9,1.2-3.1,1.2s-2.2-0.4-3.1-1.2
		s-1.3-1.8-1.3-3s0.4-2.2,1.3-3C359.7,184.9,360.7,184.5,361.9,184.5z M363.4,190.2c0.4-0.4,0.6-0.9,0.6-1.6c0-0.6-0.2-1.1-0.6-1.5
		s-0.9-0.6-1.5-0.6s-1.1,0.2-1.4,0.6c-0.4,0.4-0.6,0.9-0.6,1.5s0.2,1.1,0.6,1.5s0.9,0.6,1.4,0.6C362.5,190.8,363,190.6,363.4,190.2z
		"/>
</g>
</svg>
