<?xml version="1.0" encoding="utf-8"?>
<!-- Generator: Adobe Illustrator 18.1.1, SVG Export Plug-In . SVG Version: 6.00 Build 0)  -->
<svg version="1.1" id="Layer_1" xmlns="http://www.w3.org/2000/svg" xmlns:xlink="http://www.w3.org/1999/xlink" x="0px" y="0px"
	 viewBox="0 0 400 300" enable-background="new 0 0 400 300" xml:space="preserve">
<rect fill="#FFAA00" width="400" height="300"/>
<g enable-background="new    ">
	<path fill="#FFFFFF" d="M196.1,70.6v0.2l0.3-0.2c9.5,0,18.2,2.3,26.1,6.8c5.1,4.3,7.7,9,7.7,14.3c0,5.2-2.4,16.7-7.1,34.7H222
		c0.9,0,1.6,2.9,2,8.6c7.6,12.8,11.4,20.6,11.4,23.2v0.4l-0.3,5.1l0.3,5.1l-0.9,1.8c3,0.8,4.5,2.1,4.5,3.9c0.7,1.1,1.1,2.4,1.1,3.8
		c2.3-1.2,4.4-1.8,6.2-1.8c3,0,5.2,2.1,6.5,6.4v1.3c0,3.1-2.3,4.9-6.8,5.6c-1.6,0-3.3-0.7-5.1-2v5.6l0.3,1.8H241l0.3,0.2v6.1
		l-0.3,1.3c1.3-1.3,2.9-2.1,4.8-2.3c3.7,0,6,2.4,7.1,7.1c0,3-1.8,4.5-5.4,4.5h-1.2c-2,0-3.8-0.5-5.4-1.5h-0.3c0,2.7-1.7,5.9-5.1,9.4
		c-1,0.7-1.8,1-2.5,1h-0.8c-1,0-1.8-0.4-2.3-1.3l2.3-5.6l0.2-2.6l-0.2-12.9l0.5-14c0-6-1-10.1-3.1-12.3c0-1-0.7-2.7-2.2-4.8
		c-3-6.9-5.2-10.7-6.5-11.5l-0.3,2.1l0.3,0.2l-0.3,1.3v0.5l0.3,4.8l-0.3,0.2l0.3,1c0,7.2-1.5,11.5-4.5,13l-1.1,0.2h-0.9v0.2
		c0,2.2-1.1,11-3.3,26.5l0.3,0.3v0.2l-0.3,0.8l0.3,4.8v0.2c3.6,2.5,5.4,4.1,5.4,4.6l0.6,2c-1.8,0.7-4.5,1-8.3,1h-5.7l-0.6-0.5v-22.2
		c-0.2-6.8-0.6-10.2-1.1-10.2l-9.4-0.5c-1.1,4.3-1.7,10.4-1.7,18.4l0.9,9.4v2.3l-0.6,0.8l-2.3-0.3l-11.6,0.7h-0.3
		c-2.6,0-3.9-0.4-3.9-1.3c0.4-1.1,3.1-2.7,8-4.5l-0.6-8.2h0.3l-0.3-0.2v-6.9l-0.3-3.8h0.3l-0.3-0.7c0-4.2-0.3-9-0.8-14.3
		c-5.1-0.8-7.7-2.2-7.7-4.3l-0.9-6.4h0.3l-0.3-0.2l0.3-7.7v-1.5l-0.3-3.1c-1.8,1-4.2,4.4-7.4,10.2c-2,1.9-3.6,3.1-4.8,3.3
		c-1.5-0.6-2.3-1-2.3-1.3v-0.5c0-9.3,4.7-21,14.2-34.9c0.5-3.7,1.2-6.4,1.9-8.2l-0.8-3l0.8-4v-0.3c-3.8-16.2-5.7-25.8-5.7-28.8
		c0-6.7,2.4-10.9,7.1-12.4C179.3,72.1,186.9,70.6,196.1,70.6z M160.4,155.9c-1.3,4-2,6.8-2,8.4v1.5c1.4-0.4,3.4-3.1,6-7.9
		c-1.5-1.3-2.8-2-3.6-2H160.4z M169.2,85.6v1.3c0,1.9,1.4,10.3,4.2,25.2l0.9,11.5v1.3c0,4.8-3.4,12.1-10.2,21.9l-2.6,6.9l4.5,2
		c2.7-3.9,4.8-5.8,6.2-5.8c0.7,0,1.2,6.9,1.4,20.6c0,2.5,0.4,3.8,1.1,3.8c6.9,2.2,14.4,3.3,22.5,3.3l0.2,0.2l0.3-0.2l1.4,0.2h8.6
		c6.4,0,9.6-1.2,9.6-3.6c0.4-0.7,0.7-3,0.9-6.8l-0.6-13.2c0.4-1.7,1-2.5,1.7-2.5c1.6,0,3.5,1.7,5.7,5.1c1.3,2.7,2.3,4.4,3.1,5.1
		l4-1.3c0-4.6-3.5-12.4-10.5-23.7c-0.9-2.3-1.4-4.6-1.4-6.8v-0.3c0-2,2-11.1,6-27.2c0.7-4,1.1-7.3,1.1-10v-0.7l0.3-0.2l-0.3-0.3
		v-2.3c0-2.7-2.5-6.1-7.4-10.4c-1.6-1.5-6.1-2.9-13.3-4.3c-5.7-0.8-10.3-1.3-13.9-1.3c-9,0-16.4,2.4-22.2,7.1
		C169.7,81.9,169.2,83.7,169.2,85.6z M200.2,80c9.8,0,15.9,1.5,18.2,4.5c1.1,1.1,1.7,3.7,1.7,7.7c0,5-1.1,9.1-3.4,12.5l3.4,7.1
		l0.5,3c0,1.7-0.7,2.5-2.2,2.5l-2.5-0.3h-0.6c1.1,5.6,1.7,9.2,1.7,11c0,3.3-1.8,5.3-5.4,5.8c-2.4,3.4-6.5,5.1-12.4,5.1
		c-7.5,0-13.5-2.6-17.9-7.7l-0.2,0.3c-1.3,0-2.6-0.6-4-1.8v-3.6l1.7-11.5h-0.3l-3.4,0.7h-0.5v-0.3c0-1.4,1.6-5.2,4.8-11.5
		c-1.9-5.3-2.8-9.4-2.8-12.4v-2.1c0-3.3,1.4-5.7,4.2-7.1C185.9,80.8,192.5,80,200.2,80z M177.5,112.3h2.8l1.7-0.2l0.3,0.2l1.9-0.2h4
		l2.8-0.2v0.2l0.3-0.2h4.2c10.1,0,17.5,0.9,22.4,2.8v-0.2c-1.6-5.3-3.7-8.6-6.2-10c-9.5-1-16.3-1.5-20.4-1.5h-2l-1.1-0.3
		c-4.6,0-6.8,0.7-6.8,2.1C180.1,106.7,178.8,109.3,177.5,112.3z M181.4,178.8l1.1,13.8h-0.2l0.2,0.2v8.4l0.3,1l-0.3,0.2
		c0.4,6,0.9,9.6,1.4,10.9c0,1-0.7,1.6-2.2,1.6l-3.1,0.7v0.3c1.8-0.3,4.4-0.5,7.7-0.5h2.8c-0.5-2.5-0.8-5.3-0.8-8.4l0.2-14.3
		l-0.2-2.5c0.4-4.1,1-6.1,1.9-6.1h6.8c5.1,0,7.7,0.8,7.7,2.5c0.5,5.7,0.8,10.8,0.8,15.3v8.2l0.3,7.7l2-0.3h5.1
		c-0.3-0.8-1.7-1.8-4.2-3c-0.5-1.3-0.8-2.5-0.8-3.6v-1.3c0-1.9,1.3-11.8,3.9-29.5l-5.7,0.2h-0.3l-1.1-0.2l-0.3,0.2l-1.4-0.2
		C197.6,180.1,190.4,179.7,181.4,178.8z M178.9,89.9v2.5c0,2.1,0.7,5.1,2.2,8.9c1.3-0.3,4.1-0.6,8.3-0.7c17,0.6,25.5,1.4,25.5,2.5
		c1.9-5,2.8-8.9,2.8-11.7v-1c0-4.9-3.5-7.4-10.5-7.4c0-0.3-1.9-0.5-5.7-0.5h-3.7c-10.6,0.5-16.4,1.4-17.3,2.8
		C179.4,86.4,178.9,88,178.9,89.9z M183.9,114.6c-1.9,0-2.8,0.2-2.8,0.7l-1.7,10.2l0.6,3.3c15,1.2,24.3,1.8,27.8,1.8v0.2l0.3-0.2
		l2.8,0.2h2.5l0.6-3.6c0-2.2-0.7-5.7-2-10.4c-8.6-1.5-15.6-2.3-21-2.3h-4.8l-0.3-0.2l-0.3,0.2H183.9z M186.5,119
		c0.8,0.3,1.3,0.7,1.4,1v0.5c0,0.9-0.4,1.5-1.1,1.8h-1.2l-1.1-1v-1C185.1,119.4,185.8,119,186.5,119z M185.9,132
		c2.7,2.9,6.7,4.3,11.9,4.3h1.7c3.5,0,6.2-0.8,8.3-2.5C200.2,132.9,192.9,132.3,185.9,132z M208.6,121.3l2,0.7
		c0,1.2-0.5,2.1-1.4,2.6c-1.7-0.3-2.5-0.6-2.5-1v-1C206.8,122,207.4,121.6,208.6,121.3z M228.8,164c1.5,3,2.7,4.8,3.4,5.4l0.5-1.8
		l-0.3-4.8h-0.2L228.8,164z M233.3,173c1.5,3.9,2.2,8.9,2.2,14.8h-0.2l0.2,0.2v3.3l-0.2,0.2l0.2,0.2l-0.2,11.5v4.4
		c0,2.8-0.6,6.5-1.7,10.9c3.4-2.3,5.1-8.3,5.1-17.9v-3l-0.2-1.8h0.2l-0.2-0.2v-4.3l-0.3-1.8h0.3l-0.3-0.3v-1
		c0-10.2-1.4-15.3-4.2-15.3H233.3z M240.4,182.1c1.9,3.8,3.8,5.7,5.7,5.7h0.6c1.9,0,3.1-1.3,3.4-3.9v-1c-0.5-2.7-1.9-4.1-4-4.1h-1.1
		C243.5,178.8,242,179.9,240.4,182.1z M242.7,206.3c0.3,2.7,1.7,4.1,3.9,4.1c2.1-0.1,3.1-0.5,3.1-1v-1c0-3.7-1.3-5.6-3.9-5.6
		C244.1,202.8,243.1,204,242.7,206.3z M245.8,181.6c1.3,0,1.9,0.6,1.9,1.8v0.5c-0.3,0.7-0.9,1-1.9,1c-1.2,0-1.9-0.7-2-2v-0.3
		C244.1,181.9,244.8,181.6,245.8,181.6z M247.5,204.3c0.8,0.3,1.3,0.7,1.4,1v0.7c0,1.3-0.8,2-2.3,2h-0.8l-1.2-1
		C244.6,205.2,245.6,204.3,247.5,204.3z"/>
</g>
</svg>
