<?xml version="1.0" encoding="utf-8"?>
<!-- Generator: Adobe Illustrator 18.1.1, SVG Export Plug-In . SVG Version: 6.00 Build 0)  -->
<svg version="1.1" id="Layer_1" xmlns="http://www.w3.org/2000/svg" xmlns:xlink="http://www.w3.org/1999/xlink" x="0px" y="0px"
	 viewBox="0 0 400 300" enable-background="new 0 0 400 300" xml:space="preserve">
<rect fill="#FFAA00" width="400" height="300"/>
<g>
	<path fill="#FFFFFF" d="M56,134.2h25.4v6.7h-9.3v27h-6.7v-27H56V134.2z"/>
	<path fill="#FFFFFF" d="M86.9,134.2h6.7v33.6h-6.7V134.2z"/>
	<path fill="#FFFFFF" d="M126.7,137.4l-4.3,5c-1.6-1-3.4-1.6-5.3-1.7c-1.9-0.1-3.7,0.3-5.3,1c-1.6,0.8-3,2-4.1,3.6
		c-1.1,1.6-1.7,3.6-1.7,5.7c0,2.3,0.6,4.3,1.7,6c1.2,1.7,2.6,2.9,4.3,3.7c1.7,0.7,3.5,1,5.5,0.9c2-0.2,3.7-0.8,5.3-2l4.3,4.9
		c-3.3,2.7-7,4-11.1,4c-4.8,0-8.9-1.7-12.3-5.1c-3.4-3.4-5.1-7.5-5.1-12.3c0-4.8,1.7-8.9,5.1-12.3c3.4-3.4,7.5-5.1,12.3-5.1
		C119.9,133.7,123.5,134.9,126.7,137.4z"/>
	<path fill="#FFFFFF" d="M147,134.2h25.4v6.7h-9.3v27h-6.7v-27H147V134.2z"/>
	<path fill="#FFFFFF" d="M188.4,134.2h2l15.9,33.7h-7.4l-9.6-20.5l-10.4,20.5h-7.5L188.4,134.2z"/>
	<path fill="#FFFFFF" d="M234.9,137.4l-4.3,5c-1.6-1-3.4-1.6-5.3-1.7c-1.9-0.1-3.7,0.3-5.3,1c-1.6,0.8-3,2-4.1,3.6
		c-1.1,1.6-1.7,3.6-1.7,5.7c0,2.3,0.6,4.3,1.7,6c1.2,1.7,2.6,2.9,4.3,3.7c1.7,0.7,3.5,1,5.5,0.9c2-0.2,3.7-0.8,5.3-2l4.3,4.9
		c-3.3,2.7-7,4-11.1,4c-4.8,0-8.9-1.7-12.3-5.1c-3.4-3.4-5.1-7.5-5.1-12.3c0-4.8,1.7-8.9,5.1-12.3c3.4-3.4,7.5-5.1,12.3-5.1
		C228.1,133.7,231.7,134.9,234.9,137.4z"/>
	<path fill="#FFFFFF" d="M255.2,134.2h25.4v6.7h-9.3v27h-6.7v-27h-9.4V134.2z"/>
	<path fill="#FFFFFF" d="M287.4,138.7c3.4-3.4,7.5-5.1,12.3-5.1c4.8,0,8.9,1.7,12.3,5.1c3.4,3.4,5.1,7.5,5.1,12.3
		c0,4.8-1.7,8.9-5.1,12.3s-7.5,5.1-12.3,5.1c-4.8,0-8.9-1.7-12.3-5.1s-5.1-7.5-5.1-12.3C282.3,146.2,284,142.1,287.4,138.7z
		 M307.2,143.6c-2-2-4.5-3.1-7.4-3.1s-5.4,1-7.4,3.1c-2,2.1-3.1,4.5-3.1,7.4c0,2.9,1,5.4,3.1,7.4s4.5,3.1,7.4,3.1s5.4-1,7.4-3.1
		s3.1-4.5,3.1-7.4C310.3,148.1,309.3,145.7,307.2,143.6z"/>
	<path fill="#FFFFFF" d="M345.4,134.2v6.7H323v-6.7H345.4z M323,153.9v-6.7h18.6v6.7H323z M323,167.9v-6.7h22.3v6.7H323z"/>
</g>
<g>
	<path d="M316.7,186.4c0,3.2-2.4,5.7-5.5,5.7c-3.1,0-5.6-2.5-5.6-5.7c0-3.1,2.5-5.7,5.6-5.7C314.3,180.7,316.7,183.3,316.7,186.4z
		 M306.5,186.4c0,2.7,2,4.9,4.7,4.9c2.6,0,4.6-2.2,4.6-4.9c0-2.7-2-4.9-4.6-4.9C308.5,181.5,306.5,183.6,306.5,186.4z M313.4,184.3
		c-0.2-0.1-0.9-0.4-1.8-0.4c-1.7,0-2.6,1.1-2.6,2.6c0,1.4,0.9,2.6,2.6,2.6c0.7,0,1.4-0.2,1.9-0.5l0.2,0.7c-0.6,0.4-1.5,0.6-2.3,0.6
		c-2.1,0-3.4-1.5-3.4-3.3c0-2.1,1.7-3.4,3.5-3.4c1,0,1.8,0.3,2,0.5L313.4,184.3z"/>
	<path d="M325.9,180l-1.7,1.5c-0.2-0.3-0.5-0.4-0.9-0.4c-0.3,0-0.5,0.1-0.7,0.3c-0.2,0.2-0.3,0.4-0.4,0.7s-0.1,0.5-0.2,0.7
		c0,0.2,0,0.4,0,0.6v1.5h2.4v2.2H322v5.8h-2.2v-5.8h-1.5v-2.2h1.5v-1.5c0-1.3,0.3-2.4,1-3.2c0.7-0.8,1.5-1.2,2.6-1.2
		C324.4,178.8,325.2,179.2,325.9,180z"/>
	<path d="M326.2,198.4l3.3-6.2l-3.9-7.4h2.6l2.6,4.4l2.4-4.4h2.6l-7.1,13.7H326.2z"/>
	<path d="M339.9,184.5c1.2,0,2.3,0.4,3.1,1.2c0.9,0.8,1.3,1.8,1.3,3c0,1.2-0.4,2.2-1.3,3s-1.9,1.2-3.1,1.2c-1.2,0-2.2-0.4-3.1-1.2
		s-1.3-1.8-1.3-3c0-1.2,0.4-2.2,1.3-3C337.7,184.9,338.7,184.5,339.9,184.5z M341.4,190.2c0.4-0.4,0.6-0.9,0.6-1.6
		c0-0.6-0.2-1.1-0.6-1.5c-0.4-0.4-0.9-0.6-1.5-0.6c-0.6,0-1.1,0.2-1.4,0.6c-0.4,0.4-0.6,0.9-0.6,1.5c0,0.6,0.2,1.1,0.6,1.5
		c0.4,0.4,0.9,0.6,1.4,0.6C340.5,190.8,341,190.6,341.4,190.2z"/>
</g>
</svg>
