<?xml version="1.0" encoding="utf-8"?>
<!-- Generator: Adobe Illustrator 18.1.1, SVG Export Plug-In . SVG Version: 6.00 Build 0)  -->
<svg version="1.1" id="Layer_1" xmlns="http://www.w3.org/2000/svg" xmlns:xlink="http://www.w3.org/1999/xlink" x="0px" y="0px"
	 viewBox="0 0 400 300" enable-background="new 0 0 400 300" xml:space="preserve">
<rect fill="#4383E8" width="400" height="300"/>
<g enable-background="new    ">
	<path fill="#FFFFFF" d="M174.3,182.7c11.5,2.3,28.2,4.8,50,7.3c7.2,1.4,13,4.2,17.2,8.5c1.5,2.1,2.2,3.7,2.2,4.8v1.8
		c0,5.9-4.6,10.2-13.7,12.8c-4.4,0.8-8.5,1.3-12.1,1.3c-6.6,0-22.7-3.3-48.1-10c-8.5-3.3-12.7-6.1-12.7-8.6
		c-1.5-1.2-2.2-2.7-2.2-4.2c0-4.8,3.9-8.8,11.8-12.1L174.3,182.7z M206.5,71c5.7,0,10.2,1.9,13.7,5.8c4.8,3.1,8.3,8.6,10.5,16.5
		c1.4,7,2.5,10.6,3.2,10.6c0.8,0.7,1.3,2.5,1.3,5.5c2.8,1.4,5.4,5.3,8,11.6c2.5,4.7,3.8,10.1,3.8,16.1c1.1,1.5,2.5,7.4,4.2,17.8
		l-1,4l0.3,1.5c-2.8,4.2-7.1,6.3-13,6.3l-6.4-0.5c4.9,6.6,7.4,10.9,7.4,12.8v0.7c-0.3,0.7-1.3,1-2.9,1c-17.4-1.8-28.4-3.6-33.1-5.3
		c-1-1.1-1.6-2.1-1.6-2.8v-0.3c1.5-1.1,5.7-2.3,12.7-3.7v-0.3l-11.2-3.7c-4.9-3.4-7.7-5.1-8.3-5.1c-2.1,2.2-3.8,7.3-5.1,15.1
		c-1.1,2.5-3.1,3.7-5.7,3.7c-2.9,0-10.2-3.2-21.9-9.5c-2.1-0.9-3.2-1.9-3.2-3v-0.3c1.8-1.7,4.7-2.5,8.6-2.5h2.2l3.9,0.3
		c2.8-3.1,4.9-9,6.3-17.9l0.3-2.5c-1.9,1.3-4.3,3.4-7,6.2c-1.7,1.1-3.1,1.7-4.1,1.7H167c-0.4,0-0.8-0.5-1-1.5l2.5-8.5v-2.5
		c0-0.3,0.7-0.6,2.2-1c0.2-1.8,4.4-7.3,12.4-16.5l0.3-3.3h-0.3l-3.9,0.7l-0.6-2.3c0-1.7,0.8-4.4,2.5-8c-8-4.4-12.1-8.9-12.1-13.5
		c0-1.8,0.8-3.6,2.5-5.3l-2.9-5.3v-1c0-1.9,4.5-3.9,13.4-6C191.4,73,199.4,71,206.5,71z M158.7,195v1c0,5,3.7,8.5,11.2,10.5l-1-2
		v-0.4c0-1,1.1-2.1,3.2-3l4.5-9.5c-1.3-1-2.1-2.1-2.2-3.3v-1l0.7-1.5h-0.4C167.5,185.7,162.2,188.8,158.7,195z M183.2,143.5
		l-0.4,0.3l-0.6,0.4c0,3-1.7,9.7-5.1,20.1c-0.6,0.9-4.8,1.4-12.7,1.6c0,0.3-0.5,0.4-1.6,0.4c0.4,0.7,2.7,1.8,6.7,3.3
		c4.3,2.9,9.2,5,15,6.3c1-2.6,2.6-8.1,4.8-16.6c1.1-1.9,2.1-3,2.9-3.3h0.9c0.8,0,3.3,1.3,7.7,4c3.8,2.3,7.6,3.5,11.5,3.5l-8.6-15.3
		C200,147.2,193.2,145.6,183.2,143.5z M169.9,147.5c0.4,0,3.4-2.6,8.9-7.7l-1.6-0.3h-2.5c-1.3,0-2.2,1.2-2.8,3.6
		C170.5,145,169.9,146.5,169.9,147.5z M172.1,83.2V84c0,0.9,0.6,1.8,1.9,2.8c10.9-5.9,19.2-8.9,25.1-8.9h1.6
		c8.1,0,13.7,4.1,16.6,12.3l1.3,9l-0.4,0.3c3.8,1,5.7,3.1,5.7,6.5v0.5c-0.6,2.5-1.8,3.8-3.5,3.8l1,4.8c-0.4,4.4-2.1,6.5-5.1,6.5
		c0,3.3-3.9,6-11.8,8l-3.1,0.2h-1.9c-3.3,0-6.2-0.9-8.6-2.8l-3.1,0.2c-1.7,0-3.2-0.7-4.5-2l-8.3,11.8h1.6l6,0.7l1.3-0.2
		c0.5,0,1.1,1.2,1.9,3.7c9.2,1.8,14.6,2.8,16.2,2.8V144l-0.6-1.3l0.6-4.5l-0.3-1.7c2.5-2.2,5.6-3.3,9.2-3.3v0.2l0.3-0.2h1.9l0.3,0.2
		l0.3-0.2l11.8,0.7v-2.8l0.3-0.2l-0.3-0.3c0.2-3.7,1-5.5,2.2-5.5l1.3,0.7v0.5c-1.1,8.5-2.1,14.2-2.9,17h0.4l6,0.5h0.3l5.1-11.3
		l1.6-1l0.7,2v1.3c0,1.6-1.8,5-5.4,10.3c-6.1,9.4-10.9,14.1-14.4,14.1c-1.5-0.4-2.2-0.7-2.2-1v-1c0-2.7,2-8.9,6.1-18.6l0.3-2.5
		l-1,0.3l-1.6-0.3h-7.7c-4.9,0-7.8,0.7-8.9,2c0,5.3,3.7,14.4,11.2,27.4l1.3,4c-0.9,1-4.8,2-11.5,3v0.4c12.1,3,21.1,4.5,27.1,4.5
		l0.3,0.3v-0.5c0-1.5-2.1-5-6.4-10.3c-1.2-1.9-1.9-3.2-1.9-4l2.8-0.7l10.5,1.8c3.9,0,6.7-2.1,8.6-6.2c0.5-0.6,0.8-1.9,1-3.8
		c0-3.1-1.9-6.8-5.7-11.3l-1-2.5l0.3-0.7h0.7c0,0.5,0.6,1.1,1.9,1.8V141c-1.7-10.1-3.7-18-6-23.9c-0.6-1.2-2.7-3-6-5.5
		c-0.8-4.2-2.5-9.2-5.1-15.1c-2.2-7.6-4.4-12.8-6.6-15.5c-5.2-5-10.2-7.5-15-7.5c-3,0-13.4,2.8-31.2,8.3
		C173.9,81.8,173,82.2,172.1,83.2z M172.8,94.3c0,4,2.8,7.6,8.3,10.8l2.5,0.5c4.1-2.4,7.9-3.9,11.5-4.5l19.4-1.8v-0.4
		c0-9.4-4.3-15.3-13-17.6l-3.2-0.2c-5.8,0-13.5,2.9-23.2,8.8C173.5,91.5,172.8,93,172.8,94.3z M172.8,204.5c0,1.1,1.6,1.8,4.8,2v0.3
		l1.3-0.3c0-1.3-1.3-2.1-3.8-2.5C173.5,204.1,172.8,204.3,172.8,204.5z M178.8,192.8l-4.2,9h1.3c2.3,0,4.7-1.7,7-5l1-0.7
		c-1-2.4-2.5-3.6-4.5-3.6h-0.6V192.8z M177.8,186.4l-0.7,1.6c0,1.6,1.9,2.6,5.7,2.8h1c1.6,0,2.7-0.4,3.2-1.3V189
		c0-1.5-2.7-2.2-8-2.2L177.8,186.4z M189.3,187.5v0.2l0.3,0.7c0,2.9-1.2,4.3-3.5,4.3h-1v0.2l1.9,2.8c0,1.3-2,3.3-6,5.8l-1.3,2
		c0.5,0,1,0.7,1.3,2v1c0,0.7-0.5,1.6-1.6,2.5v0.2l24.8,5.3c4,0.8,7.1,1.3,9.2,1.3c-0.4-0.7-0.6-1.8-0.6-3.3v-0.2
		c0.2-2.2,1.3-3.3,3.1-3.3c-1-1-1.6-2.2-1.6-3.5c0-2.2,1.8-4.3,5.4-6.3l-2.2-2.8v-0.7c0-0.9,1.5-2.1,4.5-3.5V192
		C206.7,190.3,195.8,188.8,189.3,187.5z M182.9,113.9c5.9-1.9,18.1-3.8,36.6-5.8v-1c-0.4-3.7-1.6-5.5-3.5-5.5l-2.5-0.3
		c-17,2.1-25.4,3.9-25.4,5.3C184.6,108.1,182.9,110.6,182.9,113.9z M186.4,116.9l-0.4,3.7v1c0.1,2.2,0.6,3.3,1.3,3.3l2.6-0.8
		l4.8,0.3c3.6-0.4,9-1.5,16.2-3.3c4.9-1.2,7.3-2.6,7.3-4.2c0-2.4-0.5-4.3-1.6-5.6C213.8,111.4,203.7,113.2,186.4,116.9z
		 M192.2,119.4h0.6l0.7,0.5v2l-1,0.7h-1.3c-1.1-0.4-1.6-1.1-1.6-2v-0.2C189.6,120,190.4,119.6,192.2,119.4z M196.9,127.2h3.5
		c4.3,0,7.5-1.1,9.5-3.3v-0.2h-0.3C201.2,125.8,197,127,196.9,127.2z M210.6,116.1h1l0.9,0.8v0.7c0,0.9-0.4,1.5-1.3,1.7h-0.6
		c-1.1,0-1.8-0.2-1.9-0.7v-0.2C208.7,117.5,209.3,116.7,210.6,116.1z M216,213.3v0.8c0,0.9,0.4,1.5,1.3,1.7h2.5
		c1.5,0,2.4-0.2,2.5-0.7v-0.5c-0.3-1.6-1.4-2.5-3.2-2.5h-0.6C217.4,212.1,216.5,212.5,216,213.3z M217.3,205l1.6,4v0.5l1.6,0.2h1
		c1.5-3.4,2.2-6.5,2.2-9.3v-0.2C219.4,203,217.3,204.6,217.3,205z M225.2,146c-1.9,4.1-3.1,7.3-3.8,9.8c3.8-1.6,7-4.9,9.5-9.8
		l-0.3,0.2h-0.3l-4.5-0.2H225.2z M221.4,196.8c1.1,0.6,2.3,1,3.5,1h0.3l3.2-0.2v-1.8l-3.8-0.7h-0.3
		C222.9,195,221.9,195.6,221.4,196.8z M230.9,194v0.2c0.6,1.2,1,2.3,1,3.3c-0.9,2-2.3,3-4.1,3c-2.1,4.4-3.2,7.6-3.2,9.6
		c0.6,2.8,1.2,4.2,1.9,4.2c9.5-1.4,14.3-4.7,14.3-9.8C240.8,200.1,237.5,196.6,230.9,194z"/>
</g>
</svg>
