<?xml version="1.0" encoding="utf-8"?>
<!-- Generator: Adobe Illustrator 18.1.1, SVG Export Plug-In . SVG Version: 6.00 Build 0)  -->
<svg version="1.1" id="Layer_1" xmlns="http://www.w3.org/2000/svg" xmlns:xlink="http://www.w3.org/1999/xlink" x="0px" y="0px"
	 viewBox="0 0 400 300" enable-background="new 0 0 400 300" xml:space="preserve">
<rect fill="#FF6E6E" width="400" height="300"/>
<g enable-background="new    ">
	<path fill="#FFFFFF" d="M202.5,76.7c7.7,0,14.1,1.7,19.1,5.2c1.8,4.1,2.8,7.6,2.8,10.4c0,1.9-0.6,4-1.7,6.1
		c2.2,3.3,3.3,5.4,3.3,6.3v0.8l-1.6,1.3c-0.4,0-1.5-1.9-3.4-5.5c0-0.9-4.3-1.7-13-2.2c-4-0.7-8.6-1.1-13.8-1.1h-4.7
		c-1.5,0.8-2.8,2.5-4,5.2l3.6,0.3l0.4-0.3l1.6,0.3h8.4l1.3,0.3l0.3-0.3c14.3,0.5,21.5,1.5,21.5,3.1c1.6,2.4,2.4,4.4,2.4,6v1.9
		c0,3.8-0.8,6.1-2.4,6.8c-2.7,1.6-4,2.7-4,3.3l19.4,8.6c3.8,2.8,5.7,4.3,5.7,4.7v0.2c-1.6,2.2-4.5,3.3-8.7,3.3l-12.1-1.1v11.2
		c0,9.9-2.5,16.1-7.4,18.5c4.7,9.9,7.1,19.1,7.1,27.5v2.5l3.3,5.5c9.2,0.8,13.8,2.1,13.8,3.9l0.3,1c0,1.8-2.1,2.8-6.3,2.8h-3.3
		L230,213c-2.6,0.1-4.4,0.6-5.4,1.3c0.9,1.2,1.3,2.3,1.3,3.3c-0.6,3.3-3.3,5-8,5h-1.7c-4.7-0.5-7-2.2-7-5.2v-1.1
		c-17.2,4-28,7.1-32.6,9.4c-3.8,0.9-6.5,1.3-8.3,1.3c-2.5-0.3-3.7-1.4-3.7-3v-0.2c1.3-2.6,2-4.6,2-5.8c3.1-2,4.7-3.7,4.7-4.9
		c0-4.5-2.8-14-8.3-28.6v-0.3c0-0.8,2.7-5.5,8-14l2-4.2l-6-4.9c-0.9,0-1.6-8.2-2-24.5v-1.9c0-4-2.9-7.7-8.8-11c-0.1-1-3.1-4-9-8.8
		c-3-2.4-4.9-5.3-5.7-8.5l0.4-0.3h1.3c8.1,0,17.6,3.8,28.5,11.3c1.1-4.2,1.6-9,1.6-14.3V89.3C182.1,80.9,191.8,76.7,202.5,76.7z
		 M145.5,108.3c1.3,2.9,5.1,6.6,11.4,10.9l2-7.1C154.1,110.2,149.6,109,145.5,108.3z M175.4,92.9l1.3,6.6
		c-0.9,15.5-2.1,23.3-3.6,23.3l-1,0.3c-0.7-2.7-3.2-5.2-7.4-7.4l-3.3-1.6h-0.4l-2,7.7c5.7,4.9,9,8.1,9.7,9.6L168,136v0.8l-0.3,0.2
		l0.3,0.3v0.8l1.3,16.2v3.1c0,5.5,12.3,9.3,36.9,11.5h3.3c4.5,0,7.1-1.6,8-4.7c1.1-2,1.7-5.1,1.7-9.1v-12.3l-0.4-2.5
		c0.5-2.8,1.3-4.2,2.4-4.2h0.3c0.4,0,0.7,0.6,0.7,1.9l6.1,0.6l0.3-0.3v-0.8l-1-4.7l0.7-1.1c-2.4-0.7-6.3-2.5-11.8-5.5h-0.4
		c-4.2,1.3-8,1.9-11.4,1.9c-6.8,0-12.3-1.9-16.4-5.7v-1.4c-2.2,0-3.9-1.1-5-3.3c0-3.8,0.9-7.9,2.7-12.1c-2.2,0-3.3-0.2-3.3-0.5v-0.3
		c0-2.5,1.9-5.7,5.7-9.6c-1.3-3.8-2-7.1-2-9.9v-2.2h-0.3C179,86.2,175.4,89.4,175.4,92.9z M175.4,166.5c-2.1,6.2-5,11.5-8.7,15.9
		l-0.3,1.9c5.6,16.2,8.3,26.2,8.3,30.2c-1.7,1.4-3,2.2-3.6,2.2v0.3h0.3l9.4-3.3c-1.5-9-3.3-16.7-5.4-23.1v-1.4
		c0-2.3,2.6-5.9,7.7-10.7l2-2.5h2l2-0.3l0.4,0.3l3.3-0.3h9.7c0.9,0.3,1.4,0.9,1.4,1.9v0.3c0,0.5-1,0.8-3,1
		c3.5,5.1,6.3,12.1,8.4,21.2l2,7.7h0.7l4.7-0.8v-0.3c-1.3-1.2-2-2.4-2-3.6c0-0.8,1.7-1.8,5-2.8v-0.8l-0.3-1.3h0.3l-0.3-0.8
		c0-6.3-2-15.1-6-26.4l-6,0.6C201.1,171.7,190.5,170,175.4,166.5z M181.1,216.8l-1.3-0.2c-7.6,2.3-11.4,4.1-11.4,5.5l-0.7,1.6
		c0.1,0.9,0.5,1.3,1,1.3l24.2-7.7c10-2.4,23.3-4.9,39.9-7.4c0.2,0.7,0.9,1.1,2,1.1l1.3-0.3c-2.1-1.6-4.6-2.5-7.7-2.5h-1.3l-0.4-0.3
		c-2.6,0-9.9,1.5-21.8,4.4c-7,0.9-14.3,2.4-21.8,4.4H181.1z M178.4,190.9l3.3,12.6c0.3,4,1,6,2,6h0.4c0-1,1.3-1.8,4-2.2
		c4,0.7,6,2.2,6,4.4c4-0.5,8.7-1.6,14.1-3.1c-3.1-13.5-6.5-23.6-10-30.2h-0.7l-1,0.3v-0.3l-0.3,0.3l-2.4-0.3h-2.3
		c-5.4,0-8,1.6-8,4.7C180.1,186.1,178.4,188.7,178.4,190.9z M185.5,212.1v0.5l1,0.8c3.1-0.4,4.7-1.1,4.7-2.2
		c-0.4-1.1-1.3-1.7-2.7-1.7C186.5,210,185.5,210.9,185.5,212.1z M188.8,105.8c-1.3,3.8-2,6.8-2,9.1v2.8c3.2,1.6,9.8,2.5,19.8,2.5
		h14.1c0.9-1.6,1.3-3.1,1.3-4.4v-0.8c-0.3-4.8-0.9-7.1-1.7-7.1c-6.6-1.3-14.1-1.9-22.5-1.9H188.8z M189.5,85.1v1.1l1.6,9.7h1.3
		c5.5,0,14.8,0.6,27.8,1.9l0.4-2.8v-2.2l0.3-0.3l-0.3-0.3v-0.2l0.3-0.3l-0.3-0.3v-1.6c0-4.7-2.1-7.6-6.4-8.8
		c-3.9-1.1-7.4-1.6-10.3-1.6h-2.8C193.4,79.4,189.5,81.3,189.5,85.1z M193.1,122c0.9,2.1,6.1,3.5,15.5,4.2c5.1-1.7,7.7-2.9,7.7-3.3
		h-0.7L193.1,122z M198.5,113.2c1.3,0.4,2,0.8,2,1.1v0.8l-1,0.8c-1.2,0-2.1-0.4-2.7-1.1v-0.5C197,113.9,197.5,113.5,198.5,113.2z
		 M212,215.7v0.2c0,2.8,1.8,4.2,5.4,4.2h1.6c2.7-0.2,4-1.3,4-3.3c-0.5,0-1-0.7-1.6-2.2l-0.4-0.3h-0.3L212,215.7z M217.6,114.8h0.7
		l1.3,1.1c-0.4,0.8-0.8,1.3-1.3,1.4h-2l-0.7-0.6v-1.1C215.9,115.1,216.5,114.8,217.6,114.8z M217.3,204.1c0.5,0.9,1.4,1.4,2.7,1.4
		h1.3l0.7-0.5v-0.9c0-0.5-0.9-0.9-2.7-1C218,203.4,217.3,203.8,217.3,204.1z M230.7,133.3c0.4,0.8,0.7,2.3,0.7,4.4v0.8l-0.3,0.3v0.2
		l3.6,0.3c3.1-0.3,4.7-0.8,4.7-1.3v-0.3C236.2,135.2,233.3,133.7,230.7,133.3z"/>
</g>
</svg>
