<?xml version="1.0" encoding="utf-8"?>
<!-- Generator: Adobe Illustrator 18.1.1, SVG Export Plug-In . SVG Version: 6.00 Build 0)  -->
<svg version="1.1" id="Layer_1" xmlns="http://www.w3.org/2000/svg" xmlns:xlink="http://www.w3.org/1999/xlink" x="0px" y="0px"
	 viewBox="0 0 400 300" enable-background="new 0 0 400 300" xml:space="preserve">
<rect y="0" fill="#FF6E6E" width="400" height="300"/>
<g>
	<path fill="#FFFFFF" d="M63.9,149.2v-12.9h6.7v33.6h-6.7v-14H51.4v14h-6.7v-33.6h6.7v12.9H63.9z"/>
	<path fill="#FFFFFF" d="M97.1,136.2h7.4l-11,21.3v12.3h-6.7v-12.3l-11-21.3h7.4l6.9,12.7L97.1,136.2z"/>
	<path fill="#FFFFFF" d="M109.8,136.2h10.9c2.8,0,5.2,1,7.1,3c2,2,3,4.4,3,7.2c0,2.8-1,5.2-3,7.1s-4.3,3-7.1,3h-4.2v13.5h-6.7V136.2
		z M116.5,149.7h4.2c0.9,0,1.7-0.3,2.4-1c0.7-0.7,1-1.4,1-2.4c0-0.9-0.3-1.7-1-2.4c-0.7-0.7-1.4-1-2.4-1h-4.2V149.7z"/>
	<path fill="#FFFFFF" d="M158.5,136.2v6.7H136v-6.7H158.5z M136,155.9v-6.7h18.6v6.7H136z M136,169.9v-6.7h22.3v6.7H136z"/>
	<path fill="#FFFFFF" d="M177.4,142.9H171v27h-6.7v-33.7h13.2c2.8,0,5.2,1,7.1,3c2,2,3,4.4,3,7.2c0,2-0.5,3.9-1.6,5.5
		c-1.1,1.7-2.5,2.9-4.3,3.7l6.7,14.4h-7.2l-6.3-13.5v-6.7h2.6c0.9,0,1.7-0.3,2.4-1c0.7-0.7,1-1.4,1-2.4c0-0.9-0.3-1.7-1-2.4
		C179.1,143.2,178.3,142.9,177.4,142.9z"/>
	<path fill="#FFFFFF" d="M207,136.2h25.4v6.7h-9.3v27h-6.7v-27H207V136.2z"/>
	<path fill="#FFFFFF" d="M248.3,136.2h2l15.9,33.7h-7.4l-9.6-20.5l-10.4,20.5h-7.5L248.3,136.2z"/>
	<path fill="#FFFFFF" d="M276.3,150.3v19.6h-6.7v-33.7h2.1l18.6,18.8v-18.8h6.7v33.7h-1.8L276.3,150.3z"/>
	<path fill="#FFFFFF" d="M321.2,169.9l-8.6-15.4l-2.6,2.6v12.7h-6.7v-33.6h6.7v10.9l9.8-10.9h9.1l-11.8,13.2l12.1,20.5H321.2z"/>
	<path fill="#FFFFFF" d="M346.4,155.7l-0.2,0c-2.1-0.5-3.8-1.2-5.1-2.1c-2.7-1.8-4.2-4.3-4.3-7.6c-0.2-2.7,0.7-5,2.5-6.9
		c1.1-1.2,2.4-2,3.9-2.5c1.5-0.5,2.8-0.8,3.9-0.8c1.5,0,2.9,0.2,4.3,0.6s2.4,0.8,3.1,1.1c0.7,0.4,1.6,0.9,2.7,1.7l1.1,0.7l-3.5,5.7
		l-1.2-0.8c-0.9-0.6-1.6-1-2.1-1.2c-0.4-0.3-1.1-0.5-1.8-0.7c-0.8-0.2-1.6-0.3-2.6-0.3c-0.3,0-0.8,0.1-1.4,0.3
		c-0.6,0.2-1.2,0.5-1.5,0.9c-0.4,0.4-0.6,1.1-0.6,1.9c0,0.9,0.4,1.6,1,2.1c0.7,0.5,1.8,1,3.3,1.4c0.3,0.1,0.6,0.2,1,0.3
		c3.2,1.1,5.7,2.6,7.4,4.5c1.8,2,2.6,4.1,2.6,6.6c0,2.5-0.9,4.7-2.7,6.7c-2.1,2.3-4.6,3.5-7.7,3.5c-2.1,0-4.1-0.3-5.9-0.8
		c-3.1-1-5.7-2.7-8-5.1l4.9-4.6c2.4,2.5,5.4,3.8,9,3.8c1.2,0,2.1-0.4,2.8-1.2c0.6-0.8,0.9-1.5,0.9-2.2c0-1.9-1.9-3.4-5.6-4.7
		L346.4,155.7z"/>
</g>
<g>
	<path d="M248.7,186.4c0,3.2-2.4,5.7-5.5,5.7c-3.1,0-5.6-2.5-5.6-5.7c0-3.1,2.5-5.7,5.6-5.7C246.3,180.7,248.7,183.3,248.7,186.4z
		 M238.5,186.4c0,2.7,2,4.9,4.7,4.9c2.6,0,4.6-2.2,4.6-4.9c0-2.7-2-4.9-4.6-4.9C240.5,181.5,238.5,183.6,238.5,186.4z M245.4,184.3
		c-0.2-0.1-0.9-0.4-1.8-0.4c-1.7,0-2.6,1.1-2.6,2.6c0,1.4,0.9,2.6,2.6,2.6c0.7,0,1.4-0.2,1.9-0.5l0.2,0.7c-0.6,0.4-1.5,0.6-2.3,0.6
		c-2.1,0-3.4-1.5-3.4-3.3c0-2.1,1.7-3.4,3.5-3.4c1,0,1.8,0.3,2,0.5L245.4,184.3z"/>
	<path d="M257.9,184.7v-4.9h2.6v12.9h-2.6v-5.4h-4.8v5.4h-2.6v-12.9h2.6v4.9H257.9z"/>
	<path d="M262,198.4l3.3-6.2l-3.9-7.4h2.6l2.6,4.4l2.4-4.4h2.6l-7.1,13.7H262z"/>
	<path d="M274.8,184.7l0.2,0.9c0.8-0.8,1.8-1.2,2.9-1.2c1.2,0,2.1,0.4,3,1.2s1.2,1.8,1.2,3s-0.4,2.2-1.2,3c-0.8,0.8-1.8,1.2-3,1.2
		s-2.1-0.4-2.9-1.2v6.7h-2.2v-13.7H274.8z M279.7,188.7c0-0.6-0.2-1.1-0.6-1.5c-0.4-0.4-0.9-0.6-1.5-0.6c-0.6,0-1.1,0.2-1.5,0.6
		c-0.4,0.4-0.6,0.9-0.6,1.5c0,0.6,0.2,1.1,0.6,1.5c0.4,0.4,0.9,0.6,1.5,0.6c0.6,0,1.1-0.2,1.5-0.6
		C279.5,189.7,279.7,189.2,279.7,188.7z"/>
	<path d="M289.1,190.2l1.7,1.2c-0.8,1-1.9,1.5-3.2,1.5c-1.2,0-2.1-0.4-3-1.2c-0.8-0.8-1.2-1.8-1.2-3s0.4-2.2,1.2-3s1.8-1.2,3-1.2
		s2.2,0.4,3,1.2c0.8,0.8,1.2,1.8,1.2,3c0,0.3,0,0.5-0.1,0.8h-5.9c0.1,0.3,0.3,0.6,0.5,0.8c0.4,0.4,0.9,0.6,1.4,0.6
		C288.3,190.8,288.7,190.6,289.1,190.2z M285.9,188h3.8c-0.1-0.3-0.3-0.6-0.5-0.9c-0.4-0.4-0.8-0.6-1.4-0.6s-1,0.2-1.4,0.6
		C286.2,187.4,286,187.7,285.9,188z"/>
	<path d="M294.9,184.7l0.3,0.9c0.6-0.7,1.5-1.1,2.7-1.1c0.5,0,0.9,0.1,1.3,0.2l-0.9,2c-0.7-0.3-1.3-0.3-1.9,0
		c-0.6,0.3-0.9,0.8-1.1,1.4v4.4h-2.3v-7.9H294.9z"/>
	<path d="M313.9,184.7v-4.9h2.6v12.9h-2.6v-5.4h-4.8v5.4h-2.6v-12.9h2.6v4.9H313.9z"/>
	<path d="M318.4,179.8h2.4v2.6h-2.4V179.8z M318.4,184.7h2.4v7.9h-2.4V184.7z"/>
	<path d="M329.2,184.7h1.8v7.9H329v-0.8c-0.8,0.7-1.7,1-2.7,1c-1.2,0-2.2-0.4-3-1.2s-1.2-1.8-1.2-3c0-1.2,0.4-2.2,1.2-3
		c0.8-0.8,1.8-1.2,3-1.2c1,0,1.9,0.3,2.7,1L329.2,184.7z M328,190.2c0.4-0.4,0.6-0.9,0.6-1.5c0-0.6-0.2-1.1-0.6-1.5
		c-0.4-0.4-0.9-0.6-1.5-0.6c-0.6,0-1.1,0.2-1.5,0.6c-0.4,0.4-0.6,0.9-0.6,1.5c0,0.6,0.2,1.1,0.6,1.5c0.4,0.4,0.9,0.6,1.5,0.6
		C327.2,190.8,327.7,190.6,328,190.2z"/>
	<path d="M336.4,184.7h1.8v2.2h-1.8v5.8h-2.3v-5.8h-1.7v-2.2h1.7v-2.9h2.3V184.7z"/>
	<path d="M347.8,184.7v3.9c0,1.2-0.4,2.1-1.3,3s-1.8,1.2-2.9,1.2s-2.1-0.4-2.9-1.2s-1.3-1.8-1.3-3v-3.9h2.4v3.9c0,0.5,0.2,1,0.5,1.4
		c0.4,0.4,0.8,0.6,1.3,0.6s0.9-0.2,1.3-0.6c0.3-0.4,0.5-0.9,0.5-1.4v-3.9H347.8z"/>
	<path d="M348.8,191.4l1.5-1.5c0.4,0.4,0.8,0.7,1.3,0.9s0.9,0.2,1.2,0.1s0.5-0.3,0.5-0.6c0-0.2-0.1-0.3-0.2-0.5s-0.3-0.2-0.4-0.3
		c-0.1-0.1-0.3-0.1-0.6-0.2c-0.9-0.3-1.6-0.6-2-0.9c-0.4-0.3-0.6-0.9-0.6-1.6c0-0.7,0.3-1.3,0.8-1.7c0.6-0.4,1.2-0.7,2-0.7
		c0.6,0,1.2,0.1,1.6,0.2c0.4,0.1,1,0.4,1.5,0.7l-1.1,1.7c-0.5-0.4-1-0.6-1.4-0.7c-0.4-0.1-0.7-0.1-0.9,0c-0.2,0.1-0.4,0.3-0.4,0.6
		c0,0.1,0,0.2,0,0.3c0,0.1,0.1,0.2,0.3,0.2s0.2,0.1,0.4,0.2c0.1,0,0.3,0.1,0.5,0.2s0.4,0.1,0.5,0.2c0.6,0.2,1.1,0.5,1.6,0.9
		c0.4,0.4,0.6,0.9,0.6,1.6c0,0.7-0.3,1.2-0.9,1.7c-0.6,0.5-1.3,0.8-2.1,0.8C351,192.9,349.8,192.4,348.8,191.4z"/>
</g>
</svg>
